<svg width="84" height="84" viewBox="0 0 84 84" fill="none" xmlns="http://www.w3.org/2000/svg">
<g filter="url(#filter0_d_51_21272)">
<path fill-rule="evenodd" clip-rule="evenodd" d="M42 56C54.1503 56 64 46.1503 64 34C64 21.8497 54.1503 12 42 12C29.8497 12 20 21.8497 20 34C20 46.1503 29.8497 56 42 56Z" fill="#0A84FF"/>
<path fill-rule="evenodd" clip-rule="evenodd" d="M43.8333 24.8333C43.8333 23.8208 43.0125 23 42 23C40.9875 23 40.1667 23.8208 40.1667 24.8333V32.1667H32.8333C31.8208 32.1667 31 32.9875 31 34C31 35.0125 31.8208 35.8333 32.8333 35.8333H40.1667V43.1667C40.1667 44.1792 40.9875 45 42 45C43.0125 45 43.8333 44.1792 43.8333 43.1667V35.8333H51.1667C52.1792 35.8333 53 35.0125 53 34C53 32.9875 52.1792 32.1667 51.1667 32.1667H43.8333V24.8333Z" fill="white"/>
</g>
<defs>
<filter id="filter0_d_51_21272" x="0" y="0" width="84" height="84" filterUnits="userSpaceOnUse" color-interpolation-filters="sRGB">
<feFlood flood-opacity="0" result="BackgroundImageFix"/>
<feColorMatrix in="SourceAlpha" type="matrix" values="0 0 0 0 0 0 0 0 0 0 0 0 0 0 0 0 0 0 127 0" result="hardAlpha"/>
<feOffset dy="8"/>
<feGaussianBlur stdDeviation="10"/>
<feColorMatrix type="matrix" values="0 0 0 0 0 0 0 0 0 0.287059 0 0 0 0 0.6 0 0 0 0.6 0"/>
<feBlend mode="normal" in2="BackgroundImageFix" result="effect1_dropShadow_51_21272"/>
<feBlend mode="normal" in="SourceGraphic" in2="effect1_dropShadow_51_21272" result="shape"/>
</filter>
</defs>
</svg>
